# xmcd CD database file
#
# Track frame offsets:
#	150
#	16917
#	29145
#	43175
#	60530
#	78435
#	99715
#	116772
#	132535
#	147345
#	165375
#	197860
#
# Disc length: 3088 seconds
#
# Revision: 0
# Processed by: cddbd v1.5.1PL2 Copyright (c) Steve Scherf et al.
# Submitted via: CDex 1.51
#
DISCID=ad0c0e0c
DTITLE=Lars Bygdén - Trading Happiness for Songs
DYEAR=2005
DGENRE=Country
TTITLE0=Don't You Miss Me
TTITLE1=Thinking 'bout You
TTITLE2=Close Your Eyes
TTITLE3=The Party's Over
TTITLE4=Dream On
TTITLE5=The Mess You've Made
TTITLE6=For The Old Folks
TTITLE7=Another Year
TTITLE8=I Couldn't Help It
TTITLE9=This Road
TTITLE10=Highwayman
TTITLE11=Data Track
EXTD=YEAR: 2005
EXTT0=
EXTT1=
EXTT2=
EXTT3=
EXTT4=
EXTT5=
EXTT6=
EXTT7=
EXTT8=
EXTT9=
EXTT10=
EXTT11=
PLAYORDER=
